<svg width="21" height="21" viewBox="0 0 21 21" fill="none" xmlns="http://www.w3.org/2000/svg">
<g clip-path="url(#clip0_9_20633)">
<path d="M1.3125 15.7502C1.31363 16.3013 1.43113 16.8459 1.65731 17.3483C1.88349 17.8508 2.21325 18.2998 2.625 18.666V20.344C2.625 20.518 2.69414 20.685 2.81721 20.808C2.94028 20.9311 3.1072 21.0002 3.28125 21.0002H4.59375C4.7678 21.0002 4.93472 20.9311 5.05779 20.808C5.18086 20.685 5.25 20.518 5.25 20.344V19.6877H15.75V20.344C15.75 20.518 15.8191 20.685 15.9422 20.808C16.0653 20.9311 16.2322 21.0002 16.4062 21.0002H17.7188C17.8928 21.0002 18.0597 20.9311 18.1828 20.808C18.3059 20.685 18.375 20.518 18.375 20.344V18.666C18.7867 18.2998 19.1165 17.8508 19.3427 17.3483C19.5689 16.8459 19.6864 16.3013 19.6875 15.7502V13.7815H1.3125V15.7502ZM20.3438 10.5002H3.28125V2.84057C3.28162 2.66833 3.333 2.50006 3.42889 2.35698C3.52478 2.21391 3.6609 2.10244 3.82007 2.03663C3.97924 1.97082 4.15433 1.95362 4.32327 1.9872C4.4922 2.02079 4.6474 2.10365 4.7693 2.22533L5.55967 3.01529C5.02113 4.24084 5.24754 5.43973 5.91322 6.28547L5.90625 6.29244C5.78365 6.41545 5.7148 6.58204 5.7148 6.75571C5.7148 6.92939 5.78365 7.09598 5.90625 7.21899L6.37014 7.68287C6.43108 7.74383 6.50343 7.79218 6.58306 7.82517C6.66269 7.85816 6.74804 7.87514 6.83423 7.87514C6.92042 7.87514 7.00577 7.85816 7.0854 7.82517C7.16503 7.79218 7.23738 7.74383 7.29832 7.68287L11.6201 3.36106C11.6811 3.30012 11.7294 3.22776 11.7624 3.14814C11.7954 3.06851 11.8124 2.98316 11.8124 2.89696C11.8124 2.81077 11.7954 2.72542 11.7624 2.64579C11.7294 2.56616 11.6811 2.49381 11.6201 2.43287L11.1562 1.96899C11.0332 1.84601 10.8663 1.77693 10.6924 1.77693C10.5184 1.77693 10.3515 1.84601 10.2285 1.96899L10.2215 1.97596C9.37576 1.31027 8.1777 1.08387 6.95133 1.6224L6.16137 0.832033C5.76414 0.434758 5.25802 0.164205 4.70702 0.0545903C4.15602 -0.055024 3.58488 0.00122449 3.06585 0.216222C2.54682 0.431219 2.1032 0.795308 1.79111 1.26244C1.47901 1.72957 1.31245 2.27877 1.3125 2.84057V10.5002H0.65625C0.482202 10.5002 0.315282 10.5694 0.192211 10.6924C0.0691404 10.8155 0 10.9824 0 11.1565L0 11.8127C0 11.9868 0.0691404 12.1537 0.192211 12.2768C0.315282 12.3998 0.482202 12.469 0.65625 12.469H20.3438C20.5178 12.469 20.6847 12.3998 20.8078 12.2768C20.9309 12.1537 21 11.9868 21 11.8127V11.1565C21 10.9824 20.9309 10.8155 20.8078 10.6924C20.6847 10.5694 20.5178 10.5002 20.3438 10.5002Z" fill="black"/>
</g>
<defs>
<clipPath id="clip0_9_20633">
<rect width="21" height="21" fill="white"/>
</clipPath>
</defs>
</svg>
