<svg width="25" height="25" viewBox="0 0 25 25" fill="none" xmlns="http://www.w3.org/2000/svg">
<path d="M19.791 7.29232H11.4577V14.584H3.12435V5.20898H1.04102V20.834H3.12435V17.709H21.8743V20.834H23.9577V11.459C23.9577 10.3539 23.5187 9.29411 22.7373 8.51271C21.9559 7.7313 20.8961 7.29232 19.791 7.29232ZM7.29102 13.5423C8.11982 13.5423 8.91467 13.2131 9.50072 12.627C10.0868 12.041 10.416 11.2461 10.416 10.4173C10.416 9.58852 10.0868 8.79366 9.50072 8.20761C8.91467 7.62156 8.11982 7.29232 7.29102 7.29232C6.46221 7.29232 5.66736 7.62156 5.08131 8.20761C4.49526 8.79366 4.16602 9.58852 4.16602 10.4173C4.16602 11.2461 4.49526 12.041 5.08131 12.627C5.66736 13.2131 6.46221 13.5423 7.29102 13.5423V13.5423Z" fill="black"/>
</svg>
