<svg width="23" height="21" viewBox="0 0 23 21" fill="none" xmlns="http://www.w3.org/2000/svg">
<path d="M22.1085 10.3294L12.6749 0.900696L12.0426 0.268372C11.8985 0.125248 11.7037 0.0449219 11.5006 0.0449219C11.2975 0.0449219 11.1027 0.125248 10.9586 0.268372L0.892679 10.3294C0.74505 10.4765 0.628376 10.6516 0.549545 10.8445C0.470713 11.0374 0.431322 11.2441 0.433695 11.4525C0.443461 12.3118 1.15879 12.9979 2.01817 12.9979H3.05577V20.9495H19.9454V12.9979H21.005C21.4225 12.9979 21.8155 12.8343 22.1109 12.5389C22.2564 12.3939 22.3716 12.2215 22.45 12.0316C22.5284 11.8418 22.5683 11.6383 22.5675 11.4329C22.5675 11.0179 22.4039 10.6248 22.1085 10.3294V10.3294ZM12.8678 19.1917H10.1334V14.2112H12.8678V19.1917ZM18.1876 11.2401V19.1917H14.4303V13.6253C14.4303 13.0858 13.9933 12.6487 13.4537 12.6487H9.54746C9.00791 12.6487 8.5709 13.0858 8.5709 13.6253V19.1917H4.81358V11.2401H2.46983L11.503 2.21417L12.067 2.77814L20.5338 11.2401H18.1876Z" fill="#356F37"/>
</svg>
