<svg width="24" height="24" viewBox="0 0 24 24" fill="none" xmlns="http://www.w3.org/2000/svg">
<path fill-rule="evenodd" clip-rule="evenodd" d="M8.465 1.066C9.638 1.012 10.012 1 13 1C15.988 1 16.362 1.013 17.534 1.066C18.706 1.119 19.506 1.306 20.206 1.577C20.939 1.854 21.604 2.287 22.154 2.847C22.714 3.396 23.146 4.06 23.422 4.794C23.694 5.494 23.88 6.294 23.934 7.464C23.988 8.639 24 9.013 24 12C24 14.988 23.987 15.362 23.934 16.535C23.881 17.705 23.694 18.505 23.422 19.205C23.146 19.9391 22.7133 20.6042 22.154 21.154C21.604 21.714 20.939 22.146 20.206 22.422C19.506 22.694 18.706 22.88 17.536 22.934C16.362 22.988 15.988 23 13 23C10.012 23 9.638 22.987 8.465 22.934C7.295 22.881 6.495 22.694 5.795 22.422C5.06092 22.146 4.39582 21.7133 3.846 21.154C3.28638 20.6047 2.85331 19.9399 2.577 19.206C2.306 18.506 2.12 17.706 2.066 16.536C2.012 15.361 2 14.987 2 12C2 9.012 2.013 8.638 2.066 7.466C2.119 6.294 2.306 5.494 2.577 4.794C2.85372 4.06008 3.28712 3.39531 3.847 2.846C4.39604 2.2865 5.06047 1.85344 5.794 1.577C6.494 1.306 7.294 1.12 8.464 1.066H8.465ZM17.445 3.046C16.285 2.993 15.937 2.982 13 2.982C10.063 2.982 9.715 2.993 8.555 3.046C7.482 3.095 6.9 3.274 6.512 3.425C5.999 3.625 5.632 3.862 5.247 4.247C4.88205 4.60205 4.60118 5.03428 4.425 5.512C4.274 5.9 4.095 6.482 4.046 7.555C3.993 8.715 3.982 9.063 3.982 12C3.982 14.937 3.993 15.285 4.046 16.445C4.095 17.518 4.274 18.1 4.425 18.488C4.601 18.965 4.882 19.398 5.247 19.753C5.602 20.118 6.035 20.399 6.512 20.575C6.9 20.726 7.482 20.905 8.555 20.954C9.715 21.007 10.062 21.018 13 21.018C15.938 21.018 16.285 21.007 17.445 20.954C18.518 20.905 19.1 20.726 19.488 20.575C20.001 20.375 20.368 20.138 20.753 19.753C21.118 19.398 21.399 18.965 21.575 18.488C21.726 18.1 21.905 17.518 21.954 16.445C22.007 15.285 22.018 14.937 22.018 12C22.018 9.063 22.007 8.715 21.954 7.555C21.905 6.482 21.726 5.9 21.575 5.512C21.375 4.999 21.138 4.632 20.753 4.247C20.3979 3.88207 19.9657 3.60121 19.488 3.425C19.1 3.274 18.518 3.095 17.445 3.046V3.046ZM11.595 15.391C12.3797 15.7176 13.2534 15.7617 14.0669 15.5157C14.8805 15.2697 15.5834 14.7489 16.0556 14.0422C16.5278 13.3356 16.7401 12.4869 16.656 11.6411C16.572 10.7953 16.197 10.005 15.595 9.405C15.2112 9.02148 14.7472 8.72781 14.2363 8.54515C13.7255 8.36248 13.1804 8.29536 12.6405 8.34862C12.1006 8.40187 11.5792 8.57418 11.1138 8.85313C10.6485 9.13208 10.2507 9.51074 9.9493 9.96185C9.64786 10.413 9.45019 10.9253 9.37052 11.462C9.29084 11.9986 9.33115 12.5463 9.48854 13.0655C9.64593 13.5847 9.91648 14.0626 10.2807 14.4647C10.645 14.8668 11.0938 15.1832 11.595 15.391ZM9.002 8.002C9.52702 7.47698 10.1503 7.0605 10.8363 6.77636C11.5223 6.49222 12.2575 6.34597 13 6.34597C13.7425 6.34597 14.4777 6.49222 15.1637 6.77636C15.8497 7.0605 16.473 7.47698 16.998 8.002C17.523 8.52702 17.9395 9.15032 18.2236 9.8363C18.5078 10.5223 18.654 11.2575 18.654 12C18.654 12.7425 18.5078 13.4777 18.2236 14.1637C17.9395 14.8497 17.523 15.473 16.998 15.998C15.9377 17.0583 14.4995 17.654 13 17.654C11.5005 17.654 10.0623 17.0583 9.002 15.998C7.94166 14.9377 7.34597 13.4995 7.34597 12C7.34597 10.5005 7.94166 9.06234 9.002 8.002V8.002ZM19.908 7.188C20.0381 7.06527 20.1423 6.91768 20.2143 6.75397C20.2863 6.59027 20.3248 6.41377 20.3274 6.23493C20.33 6.05609 20.2967 5.87855 20.2295 5.71281C20.1622 5.54707 20.0624 5.39651 19.936 5.27004C19.8095 5.14357 19.6589 5.04376 19.4932 4.97652C19.3275 4.90928 19.1499 4.87598 18.9711 4.87858C18.7922 4.88119 18.6157 4.91965 18.452 4.9917C18.2883 5.06374 18.1407 5.1679 18.018 5.298C17.7793 5.55103 17.6486 5.88712 17.6537 6.23493C17.6588 6.58274 17.7992 6.91488 18.0452 7.16084C18.2911 7.40681 18.6233 7.54723 18.9711 7.5523C19.3189 7.55737 19.655 7.42669 19.908 7.188V7.188Z" fill="white"/>
</svg>
