<svg width="26" height="22" viewBox="0 0 26 22" fill="none" xmlns="http://www.w3.org/2000/svg">
<path d="M1 6.86107C1 1 7.46154 1 13 1C18.5385 1 25 1 25 6.86107C25 13.5594 18.5385 6.02378 18.5385 6.02378H7.46154C7.46154 6.02378 1 13.5594 1 6.86107ZM8.38462 8.53567C8.38462 8.53567 3.76923 12.7221 3.76923 20.2578H22.2308C22.2308 12.7221 17.6154 8.53567 17.6154 8.53567H8.38462Z" stroke="white" stroke-width="2" stroke-linecap="round" stroke-linejoin="round"/>
<path d="M13.0009 17.7441C15.0401 17.7441 16.6932 16.2449 16.6932 14.3955C16.6932 12.5461 15.0401 11.0469 13.0009 11.0469C10.9617 11.0469 9.30859 12.5461 9.30859 14.3955C9.30859 16.2449 10.9617 17.7441 13.0009 17.7441Z" stroke="white" stroke-width="2" stroke-linecap="round" stroke-linejoin="round"/>
</svg>
