<svg width="26" height="20" viewBox="0 0 26 20" fill="none" xmlns="http://www.w3.org/2000/svg">
<path d="M25 0.824404C25 0.824404 22.7985 2.00393 21.5745 2.33839C20.9175 1.65315 20.0444 1.16747 19.0731 0.947033C18.1019 0.726599 17.0795 0.782047 16.1441 1.10588C15.2087 1.42971 14.4056 2.0063 13.8433 2.75767C13.2809 3.50904 12.9866 4.39893 13 5.30699V6.29652C11.0829 6.34161 9.18321 5.95593 7.47019 5.17384C5.75717 4.39175 4.28398 3.23751 3.18182 1.81394C3.18182 1.81394 -1.18182 10.7197 8.63636 14.6779C6.38967 16.0612 3.71326 16.7548 1 16.6569C10.8182 21.6046 22.8182 16.6569 22.8182 5.2773C22.8182 5.00221 22.7876 4.72712 22.7309 4.45599C23.8436 3.46052 25 0.824404 25 0.824404Z" stroke="white" stroke-width="1.5" stroke-linecap="round" stroke-linejoin="round"/>
</svg>
